<svg xmlns="http://www.w3.org/2000/svg" width="781.333" height="781.333" version="1" viewBox="0 0 586 586"><path d="M1 292.5V572h585V13H1v279.5zm421 28V538h-34v-93H237v93h-20V198h-41v-19.5c0-10.7.1-19.5.3-19.5.1 0 54.7-12.6 121.2-27.9 66.6-15.4 121.8-28 122.8-28 1.6-.1 1.7 10.9 1.7 217.4zM188 383v156H34V227h154v156zm368 53v102H452V334h104v102zm-259 71v31h-30v-62h30v31zm61 0v31h-30v-62h30v31z"/><path d="M326 212.5V228h54v-31h-54v15.5zM326 272.5V288h54v-31h-54v15.5zM326 332.5V348h54v-31h-54v15.5zM69 278v15h84v-30H69v15zM69 332.5V348h84v-31H69v15.5zM69 387.5V403h84v-31H69v15.5zM69 442v15h84v-30H69v15zM69 497v15h84v-30H69v15zM480 368.5V384h54v-31h-54v15.5zM480 439v15h54v-30h-54v15zM480 510v15h54v-30h-54v15z"/></svg>